<?xml version="1.0" encoding="utf-8"?>
<!-- Svg Vector Icons : http://www.onlinewebfonts.com/icon -->
<!DOCTYPE svg PUBLIC "-//W3C//DTD SVG 1.1//EN" "http://www.w3.org/Graphics/SVG/1.1/DTD/svg11.dtd">
<svg version="1.1" xmlns="http://www.w3.org/2000/svg" xmlns:xlink="http://www.w3.org/1999/xlink" x="0px" y="0px" viewBox="0 0 1000 1000" enable-background="new 0 0 1000 1000" xml:space="preserve">
<metadata> Svg Vector Icons : http://www.onlinewebfonts.com/icon </metadata>
<g><g transform="translate(0.000000,511.000000) scale(0.100000,-0.100000)"><path d="M9344.8,3523.4c-101.9-67.3-121.1-151.9-73.1-324.9c144.2-526.7,192.2-868.9,192.2-1370.7c0-674.8-115.3-1239.9-378.7-1870.5c-459.5-1097.7-1382.2-2020.4-2489.5-2491.4c-1784-757.4-3837.1-359.5-5209.7,1007.3c-330.6,328.8-588.3,669-795.9,1047.7c-92.3,169.2-134.6,217.2-215.3,238.4C238.4-202.2,100-298.3,100-431c0-61.5,138.4-317.2,315.3-586.3c794-1203.4,2037.7-2012.8,3471.9-2256.9c1618.7-276.8,3310.4,261.5,4477.3,1420.7C9673.5-550.2,10192.6,1320.3,9738.9,3112c-76.9,305.7-115.4,390.2-188.4,424.8C9462.1,3579.1,9421.7,3575.3,9344.8,3523.4z"/><path d="M8347.1,3117.8c-278.8-107.7-2779.8-1153.4-2818.2-1176.5c-100-67.3-78.8-192.2,44.2-253.8c40.4-21.1,692.1-294.1,1449.5-607.5c1495.6-619,1470.6-611.3,1643.7-532.5c142.3,65.4,184.6,153.8,259.5,549.8c50,265.3,71.1,886.2,38.4,1180.3c-28.8,269.1-92.3,571-138.4,667.1c-55.7,115.3-165.3,186.5-301.8,194.2C8464.3,3140.8,8383.6,3133.1,8347.1,3117.8z"/><path d="M2629.9,753.2C1807.1,411,1201.5,149.6,1163.1,116.9c-92.3-73.1-148-201.9-136.5-319.1c25-257.6,653.6-1009.3,1149.6-1374.5c365.3-271.1,484.4-324.9,644-292.2c88.4,17.3,207.6,107.6,248,186.5c76.9,146.1,1184.2,2850.9,1184.2,2889.4c0,25-13.5,65.4-30.8,88.4C4160.1,1383.8,4115.9,1370.3,2629.9,753.2z"/><path d="M5242.4,1304.9c-25-23.1-30.8-53.8-23.1-109.6c13.5-125,1151.5-2850.9,1226.5-2941.3c75-88.4,167.3-130.7,288.4-130.7c105.7,1.9,155.7,25,386.4,180.7c438.3,292.2,859.3,719,1157.3,1168.8c138.4,209.6,173,299.9,157.6,411.4C8418.2-8.1,8331.7,115,8233.7,163c-40.4,21.1-690.1,294.1-1445.6,607.5C5377,1353,5313.5,1376.1,5242.4,1304.9z"/><path d="M4679.2,1081.9c-25-11.5-63.4-55.8-84.6-98c-23.1-44.2-296-692.1-607.5-1443.7c-526.7-1266.9-567.1-1372.6-569-1484.1c-1.9-101.9,5.8-128.8,55.7-199.9c80.7-115.3,144.2-146.1,405.6-199.9c569-115.3,1140-115.3,1707.1,0c261.4,53.8,355.6,103.8,411.4,217.2c61.5,119.2,67.3,199.9,25,324.9c-21.1,61.5-288.4,717.1-595.9,1457.2C4807.9,1147.3,4809.9,1145.4,4679.2,1081.9z"/></g></g>
</svg>